solid OBJECT
  facet normal -1 -0 0
    outer loop
      vertex -4.9500002861022949 -4.9500002861022949 20
      vertex -4.9500002861022949 5.0500001907348633 20
      vertex -4.9500002861022949 -4.9500002861022949 0
    endloop
  endfacet
  facet normal -1 -0 0
    outer loop
      vertex -4.9500002861022949 -4.9500002861022949 0
      vertex -4.9500002861022949 5.0500001907348633 20
      vertex -4.9500002861022949 5.0500001907348633 0
    endloop
  endfacet
  facet normal 0 -1 0
    outer loop
      vertex 5.0500001907348633 -4.9500002861022949 20
      vertex -4.9500002861022949 -4.9500002861022949 20
      vertex 5.0500001907348633 -4.9500002861022949 0
    endloop
  endfacet
  facet normal 0 -1 0
    outer loop
      vertex 5.0500001907348633 -4.9500002861022949 0
      vertex -4.9500002861022949 -4.9500002861022949 20
      vertex -4.9500002861022949 -4.9500002861022949 0
    endloop
  endfacet
  facet normal 1 -0 0
    outer loop
      vertex 5.0500001907348633 5.0500001907348633 20
      vertex 5.0500001907348633 -4.9500002861022949 20
      vertex 5.0500001907348633 5.0500001907348633 0
    endloop
  endfacet
  facet normal 1 -0 -0
    outer loop
      vertex 5.0500001907348633 5.0500001907348633 0
      vertex 5.0500001907348633 -4.9500002861022949 20
      vertex 5.0500001907348633 -4.9500002861022949 0
    endloop
  endfacet
  facet normal 0 1 0
    outer loop
      vertex -4.9500002861022949 5.0500001907348633 20
      vertex 5.0500001907348633 5.0500001907348633 20
      vertex -4.9500002861022949 5.0500001907348633 0
    endloop
  endfacet
  facet normal 0 1 -0
    outer loop
      vertex -4.9500002861022949 5.0500001907348633 0
      vertex 5.0500001907348633 5.0500001907348633 20
      vertex 5.0500001907348633 5.0500001907348633 0
    endloop
  endfacet
  facet normal 0 0 1
    outer loop
      vertex 5.0500001907348633 -4.9500002861022949 20
      vertex 5.0500001907348633 5.0500001907348633 20
      vertex -4.9500002861022949 -4.9500002861022949 20
    endloop
  endfacet
  facet normal -0 0 1
    outer loop
      vertex -4.9500002861022949 -4.9500002861022949 20
      vertex 5.0500001907348633 5.0500001907348633 20
      vertex -4.9500002861022949 5.0500001907348633 20
    endloop
  endfacet
  facet normal 0 0 -1
    outer loop
      vertex 5.0500001907348633 5.0500001907348633 0
      vertex 5.0500001907348633 -4.9500002861022949 0
      vertex -4.9500002861022949 5.0500001907348633 0
    endloop
  endfacet
  facet normal 0 0 -1
    outer loop
      vertex -4.9500002861022949 5.0500001907348633 0
      vertex 5.0500001907348633 -4.9500002861022949 0
      vertex -4.9500002861022949 -4.9500002861022949 0
    endloop
  endfacet
endsolid OBJECT
