solid OBJECT
  facet normal -1 -0 0
    outer loop
      vertex -4.9500002861022949 -4.9499492645263672 20.000019073486328
      vertex -4.9500002861022949 5.0500497817993164 20.000019073486328
      vertex -4.9500002861022949 -4.9499492645263672 2.5249999453080818e-05
    endloop
  endfacet
  facet normal -1 -0 0
    outer loop
      vertex -4.9500002861022949 -4.9499492645263672 2.5249999453080818e-05
      vertex -4.9500002861022949 5.0500497817993164 20.000019073486328
      vertex -4.9500002861022949 5.0500497817993164 2.5249999453080818e-05
    endloop
  endfacet
  facet normal 0 -1 -0
    outer loop
      vertex 20.049999237060547 -4.9499492645263672 14.000029563903809
      vertex 20.049999237060547 -4.9499492645263672 20.000019073486328
      vertex 5.0500001907348633 -4.9499492645263672 14.000029563903809
    endloop
  endfacet
  facet normal -0 -1 -0
    outer loop
      vertex 5.0500001907348633 -4.9499492645263672 14.000029563903809
      vertex 20.049999237060547 -4.9499492645263672 20.000019073486328
      vertex -4.9500002861022949 -4.9499492645263672 20.000019073486328
    endloop
  endfacet
  facet normal -0 -1 -0
    outer loop
      vertex 5.0500001907348633 -4.9499492645263672 14.000029563903809
      vertex -4.9500002861022949 -4.9499492645263672 20.000019073486328
      vertex 5.0500001907348633 -4.9499492645263672 2.5249999453080818e-05
    endloop
  endfacet
  facet normal 0 -1 0
    outer loop
      vertex 5.0500001907348633 -4.9499492645263672 2.5249999453080818e-05
      vertex -4.9500002861022949 -4.9499492645263672 20.000019073486328
      vertex -4.9500002861022949 -4.9499492645263672 2.5249999453080818e-05
    endloop
  endfacet
  facet normal 1 0 0
    outer loop
      vertex 5.0500001907348633 -4.9499492645263672 14.000029563903809
      vertex 5.0500001907348633 -4.9499492645263672 2.5249999453080818e-05
      vertex 5.0500001907348633 5.0500497817993164 14.000029563903809
    endloop
  endfacet
  facet normal 1 0 0
    outer loop
      vertex 5.0500001907348633 5.0500497817993164 14.000029563903809
      vertex 5.0500001907348633 -4.9499492645263672 2.5249999453080818e-05
      vertex 5.0500001907348633 5.0500497817993164 2.5249999453080818e-05
    endloop
  endfacet
  facet normal -0 1 0
    outer loop
      vertex 5.0500001907348633 5.0500497817993164 2.5249999453080818e-05
      vertex -4.9500002861022949 5.0500497817993164 2.5249999453080818e-05
      vertex 5.0500001907348633 5.0500497817993164 14.000029563903809
    endloop
  endfacet
  facet normal -0 1 -0
    outer loop
      vertex 5.0500001907348633 5.0500497817993164 14.000029563903809
      vertex -4.9500002861022949 5.0500497817993164 2.5249999453080818e-05
      vertex -4.9500002861022949 5.0500497817993164 20.000019073486328
    endloop
  endfacet
  facet normal -0 1 -0
    outer loop
      vertex 5.0500001907348633 5.0500497817993164 14.000029563903809
      vertex -4.9500002861022949 5.0500497817993164 20.000019073486328
      vertex 20.049999237060547 5.0500497817993164 14.000029563903809
    endloop
  endfacet
  facet normal 0 1 0
    outer loop
      vertex 20.049999237060547 5.0500497817993164 14.000029563903809
      vertex -4.9500002861022949 5.0500497817993164 20.000019073486328
      vertex 20.049999237060547 5.0500497817993164 20.000019073486328
    endloop
  endfacet
  facet normal 0 0 1
    outer loop
      vertex 20.049999237060547 -4.9499492645263672 20.000019073486328
      vertex 20.049999237060547 5.0500497817993164 20.000019073486328
      vertex -4.9500002861022949 -4.9499492645263672 20.000019073486328
    endloop
  endfacet
  facet normal -0 0 1
    outer loop
      vertex -4.9500002861022949 -4.9499492645263672 20.000019073486328
      vertex 20.049999237060547 5.0500497817993164 20.000019073486328
      vertex -4.9500002861022949 5.0500497817993164 20.000019073486328
    endloop
  endfacet
  facet normal 0 0 -1
    outer loop
      vertex 5.0500001907348633 5.0500497817993164 2.5249999453080818e-05
      vertex 5.0500001907348633 -4.9499492645263672 2.5249999453080818e-05
      vertex -4.9500002861022949 5.0500497817993164 2.5249999453080818e-05
    endloop
  endfacet
  facet normal 0 0 -1
    outer loop
      vertex -4.9500002861022949 5.0500497817993164 2.5249999453080818e-05
      vertex 5.0500001907348633 -4.9499492645263672 2.5249999453080818e-05
      vertex -4.9500002861022949 -4.9499492645263672 2.5249999453080818e-05
    endloop
  endfacet
  facet normal 1 0 0
    outer loop
      vertex 20.049999237060547 5.0500497817993164 14.000029563903809
      vertex 20.049999237060547 5.0500497817993164 20.000019073486328
      vertex 20.049999237060547 -4.9499492645263672 14.000029563903809
    endloop
  endfacet
  facet normal 1 -0 0
    outer loop
      vertex 20.049999237060547 -4.9499492645263672 14.000029563903809
      vertex 20.049999237060547 5.0500497817993164 20.000019073486328
      vertex 20.049999237060547 -4.9499492645263672 20.000019073486328
    endloop
  endfacet
  facet normal 0 0 -1
    outer loop
      vertex 5.0500001907348633 5.0500497817993164 14.000029563903809
      vertex 20.049999237060547 5.0500497817993164 14.000029563903809
      vertex 5.0500001907348633 -4.9499492645263672 14.000029563903809
    endloop
  endfacet
  facet normal 0 0 -1
    outer loop
      vertex 5.0500001907348633 -4.9499492645263672 14.000029563903809
      vertex 20.049999237060547 5.0500497817993164 14.000029563903809
      vertex 20.049999237060547 -4.9499492645263672 14.000029563903809
    endloop
  endfacet
endsolid OBJECT
